# xmcd CD database file
#
# Track frame offsets:
#	150
#	16794
#	35596
#	52494
#	67716
#	80545
#	98663
#	114629
#	130212
#	141848
#
# Disc length: 2109 seconds
#
# Revision: 3
# Processed by: cddbd v1.5.2PL0 Copyright (c) Steve Scherf et al.
# Submitted via: CDex 1.51
#
DISCID=84083b0a
DTITLE=Various Artist - The Music Of Nashville - Season 3 - Volume 1
DYEAR=2014
DGENRE=Country
TTITLE0=Chris Carmack - If It's Love
TTITLE1=Connie Britton - Lies Of The Lonely
TTITLE2=Hayden Panettiere - Disappear
TTITLE3=Clare Bowen and Mykelti Williamson - Carry On
TTITLE4=Connie Britton and Laura Benanti - Gasoline And Matches
TTITLE5=Chip Esten - I Know How To Love You Now
TTITLE6=Chris Carmack and Aubrey Peeples - If Your Heart Can Handle It
TTITLE7=Jonathan Jackson, Sam Palladio and Chaley Rose - The Most Beautiful Girl In The World
TTITLE8=Will Chase - Good Woman, Good To Me
TTITLE9=Sam Palladio and Clare Bowen - When You Open Your Eyes
EXTD=YEAR: 2014
EXTT0=
EXTT1=
EXTT2=
EXTT3=
EXTT4=
EXTT5=
EXTT6=
EXTT7=
EXTT8=
EXTT9=
PLAYORDER=
